<svg xmlns="http://www.w3.org/2000/svg"
     width="64"
     height="64"
     viewBox="0 0 24 24"
     fill="none"
     stroke="white"
     stroke-width="2"
     stroke-linecap="round"
     stroke-linejoin="round">

  <!-- Fond jaune arrondi -->
  <rect x="0" y="0" width="24" height="24" rx="6" fill="#facc15" stroke="none"/>

  <!-- Cigarette blanche -->
  <path d="M17 12H3a1 1 0 0 0-1 1v2a1 1 0 0 0 1 1h14" stroke="white"/>
  <path d="M7 12v4" stroke="white"/>

  <!-- Fumée blanche -->
  <path d="M18 8c0-2.5-2-2.5-2-5" stroke="white"/>
  <path d="M21 16a1 1 0 0 0 1-1v-2a1 1 0 0 0-1-1" stroke="white"/>
  <path d="M22 8c0-2.5-2-2.5-2-5" stroke="white"/>
</svg>
